<mxfile host="app.diagrams.net" modified="2020-10-30T18:23:11.789Z" agent="5.0 (Windows NT 10.0; Win64; x64) AppleWebKit/537.36 (KHTML, like Gecko) Chrome/86.0.4240.111 Safari/537.36" etag="0cTbDpK747kwrTxma4_O" version="13.8.8" type="github">
  <diagram id="AinXF6iLpbDUK6fRW9sl" name="Page-1">
    <mxGraphModel dx="1422" dy="794" grid="1" gridSize="10" guides="1" tooltips="1" connect="1" arrows="1" fold="1" page="1" pageScale="1" pageWidth="827" pageHeight="1169" math="0" shadow="0">
      <root>
        <mxCell id="0" />
        <mxCell id="1" parent="0" />
        <mxCell id="IWlfBRPp-Ncp1fWSrrZS-8" value="Back office" style="swimlane;html=1;horizontal=0;startSize=20;" vertex="1" parent="1">
          <mxGeometry y="210" width="1170" height="230" as="geometry" />
        </mxCell>
        <mxCell id="IWlfBRPp-Ncp1fWSrrZS-10" style="edgeStyle=orthogonalEdgeStyle;rounded=0;orthogonalLoop=1;jettySize=auto;html=1;entryX=0;entryY=0.5;entryDx=0;entryDy=0;startArrow=none;startFill=0;endArrow=open;endFill=0;" edge="1" parent="IWlfBRPp-Ncp1fWSrrZS-8" source="IWlfBRPp-Ncp1fWSrrZS-1" target="IWlfBRPp-Ncp1fWSrrZS-5">
          <mxGeometry relative="1" as="geometry" />
        </mxCell>
        <mxCell id="IWlfBRPp-Ncp1fWSrrZS-1" value="" style="shape=mxgraph.bpmn.shape;html=1;verticalLabelPosition=bottom;labelBackgroundColor=#ffffff;verticalAlign=top;align=center;perimeter=ellipsePerimeter;outlineConnect=0;outline=standard;symbol=general;" vertex="1" parent="IWlfBRPp-Ncp1fWSrrZS-8">
          <mxGeometry x="30" y="150" width="40" height="40" as="geometry" />
        </mxCell>
        <mxCell id="IWlfBRPp-Ncp1fWSrrZS-22" style="edgeStyle=orthogonalEdgeStyle;rounded=0;orthogonalLoop=1;jettySize=auto;html=1;entryX=0;entryY=0.5;entryDx=0;entryDy=0;startArrow=none;startFill=0;endArrow=open;endFill=0;" edge="1" parent="IWlfBRPp-Ncp1fWSrrZS-8" source="IWlfBRPp-Ncp1fWSrrZS-5" target="IWlfBRPp-Ncp1fWSrrZS-11">
          <mxGeometry relative="1" as="geometry" />
        </mxCell>
        <mxCell id="IWlfBRPp-Ncp1fWSrrZS-5" value="Receive and check order" style="html=1;whiteSpace=wrap;rounded=1;dropTarget=0;" vertex="1" parent="IWlfBRPp-Ncp1fWSrrZS-8">
          <mxGeometry x="110" y="130" width="120" height="80" as="geometry" />
        </mxCell>
        <mxCell id="IWlfBRPp-Ncp1fWSrrZS-6" value="" style="html=1;shape=message;outlineConnect=0;" vertex="1" parent="IWlfBRPp-Ncp1fWSrrZS-5">
          <mxGeometry width="20" height="14" relative="1" as="geometry">
            <mxPoint x="7" y="7" as="offset" />
          </mxGeometry>
        </mxCell>
        <mxCell id="IWlfBRPp-Ncp1fWSrrZS-2" value="Customer order" style="shape=note;whiteSpace=wrap;size=16;html=1;dropTarget=0;verticalAlign=top;labelPosition=center;verticalLabelPosition=bottom;align=center;" vertex="1" parent="IWlfBRPp-Ncp1fWSrrZS-8">
          <mxGeometry x="40" y="30" width="40" height="60" as="geometry" />
        </mxCell>
        <mxCell id="IWlfBRPp-Ncp1fWSrrZS-3" value="" style="html=1;shape=singleArrow;arrowWidth=0.4;arrowSize=0.4;outlineConnect=0;" vertex="1" parent="IWlfBRPp-Ncp1fWSrrZS-2">
          <mxGeometry width="14" height="14" relative="1" as="geometry">
            <mxPoint x="2" y="2" as="offset" />
          </mxGeometry>
        </mxCell>
        <mxCell id="IWlfBRPp-Ncp1fWSrrZS-7" value="" style="startArrow=none;startFill=0;startSize=7;endArrow=open;endFill=0;endSize=10;dashed=1;html=1;exitX=0;exitY=0;exitDx=12;exitDy=0;exitPerimeter=0;" edge="1" parent="IWlfBRPp-Ncp1fWSrrZS-8" source="IWlfBRPp-Ncp1fWSrrZS-2">
          <mxGeometry width="100" relative="1" as="geometry">
            <mxPoint x="100" y="50" as="sourcePoint" />
            <mxPoint x="200" y="10" as="targetPoint" />
            <Array as="points">
              <mxPoint x="52" y="10" />
            </Array>
          </mxGeometry>
        </mxCell>
        <mxCell id="IWlfBRPp-Ncp1fWSrrZS-53" style="edgeStyle=orthogonalEdgeStyle;rounded=0;orthogonalLoop=1;jettySize=auto;html=1;entryX=0;entryY=0.5;entryDx=0;entryDy=0;startArrow=none;startFill=0;endArrow=open;endFill=0;" edge="1" parent="IWlfBRPp-Ncp1fWSrrZS-8" source="IWlfBRPp-Ncp1fWSrrZS-11" target="IWlfBRPp-Ncp1fWSrrZS-51">
          <mxGeometry relative="1" as="geometry" />
        </mxCell>
        <mxCell id="IWlfBRPp-Ncp1fWSrrZS-11" value="Send confirmation" style="html=1;whiteSpace=wrap;rounded=1;dropTarget=0;" vertex="1" parent="IWlfBRPp-Ncp1fWSrrZS-8">
          <mxGeometry x="270" y="130" width="120" height="80" as="geometry" />
        </mxCell>
        <mxCell id="IWlfBRPp-Ncp1fWSrrZS-12" value="" style="html=1;shape=message;outlineConnect=0;strokeColor=#666666;gradientDirection=south;fillColor=#000000;" vertex="1" parent="IWlfBRPp-Ncp1fWSrrZS-11">
          <mxGeometry width="20" height="14" relative="1" as="geometry">
            <mxPoint x="7" y="7" as="offset" />
          </mxGeometry>
        </mxCell>
        <mxCell id="IWlfBRPp-Ncp1fWSrrZS-14" value="Order confirmation" style="shape=note;whiteSpace=wrap;size=16;html=1;dropTarget=0;verticalAlign=top;labelPosition=center;verticalLabelPosition=bottom;align=center;" vertex="1" parent="IWlfBRPp-Ncp1fWSrrZS-8">
          <mxGeometry x="330" y="10" width="40" height="60" as="geometry" />
        </mxCell>
        <mxCell id="IWlfBRPp-Ncp1fWSrrZS-15" value="" style="html=1;shape=singleArrow;arrowWidth=0.4;arrowSize=0.4;outlineConnect=0;fillColor=#000000;" vertex="1" parent="IWlfBRPp-Ncp1fWSrrZS-14">
          <mxGeometry width="14" height="14" relative="1" as="geometry">
            <mxPoint x="2" y="2" as="offset" />
          </mxGeometry>
        </mxCell>
        <mxCell id="IWlfBRPp-Ncp1fWSrrZS-20" value="" style="startArrow=none;startFill=0;startSize=7;endArrow=open;endFill=0;endSize=10;dashed=1;html=1;exitX=1.05;exitY=0.517;exitDx=0;exitDy=0;exitPerimeter=0;" edge="1" parent="IWlfBRPp-Ncp1fWSrrZS-8" source="IWlfBRPp-Ncp1fWSrrZS-14">
          <mxGeometry width="100" relative="1" as="geometry">
            <mxPoint x="280" y="49.5" as="sourcePoint" />
            <mxPoint x="450" y="41" as="targetPoint" />
            <Array as="points" />
          </mxGeometry>
        </mxCell>
        <mxCell id="IWlfBRPp-Ncp1fWSrrZS-56" style="edgeStyle=orthogonalEdgeStyle;rounded=0;orthogonalLoop=1;jettySize=auto;html=1;entryX=0.75;entryY=0;entryDx=0;entryDy=0;startArrow=none;startFill=0;endArrow=open;endFill=0;" edge="1" parent="IWlfBRPp-Ncp1fWSrrZS-8" source="IWlfBRPp-Ncp1fWSrrZS-50" target="IWlfBRPp-Ncp1fWSrrZS-5">
          <mxGeometry relative="1" as="geometry" />
        </mxCell>
        <mxCell id="IWlfBRPp-Ncp1fWSrrZS-50" value="" style="shape=mxgraph.bpmn.shape;html=1;verticalLabelPosition=bottom;labelBackgroundColor=#ffffff;verticalAlign=top;align=center;perimeter=ellipsePerimeter;outlineConnect=0;outline=catching;symbol=message;fillColor=#FFFFFF;" vertex="1" parent="IWlfBRPp-Ncp1fWSrrZS-8">
          <mxGeometry x="180" y="50" width="40" height="40" as="geometry" />
        </mxCell>
        <mxCell id="IWlfBRPp-Ncp1fWSrrZS-61" style="edgeStyle=orthogonalEdgeStyle;rounded=0;orthogonalLoop=1;jettySize=auto;html=1;entryX=0;entryY=0.5;entryDx=0;entryDy=0;startArrow=none;startFill=0;endArrow=open;endFill=0;" edge="1" parent="IWlfBRPp-Ncp1fWSrrZS-8" source="IWlfBRPp-Ncp1fWSrrZS-51" target="IWlfBRPp-Ncp1fWSrrZS-59">
          <mxGeometry relative="1" as="geometry" />
        </mxCell>
        <mxCell id="IWlfBRPp-Ncp1fWSrrZS-51" value="" style="shape=mxgraph.bpmn.shape;html=1;verticalLabelPosition=bottom;labelBackgroundColor=#ffffff;verticalAlign=top;align=center;perimeter=ellipsePerimeter;outlineConnect=0;outline=throwing;symbol=message;fillColor=#FFFFFF;" vertex="1" parent="IWlfBRPp-Ncp1fWSrrZS-8">
          <mxGeometry x="430" y="150" width="40" height="40" as="geometry" />
        </mxCell>
        <mxCell id="IWlfBRPp-Ncp1fWSrrZS-63" style="edgeStyle=orthogonalEdgeStyle;rounded=0;orthogonalLoop=1;jettySize=auto;html=1;entryX=0;entryY=0.5;entryDx=0;entryDy=0;startArrow=none;startFill=0;endArrow=open;endFill=0;" edge="1" parent="IWlfBRPp-Ncp1fWSrrZS-8" source="IWlfBRPp-Ncp1fWSrrZS-59" target="IWlfBRPp-Ncp1fWSrrZS-62">
          <mxGeometry relative="1" as="geometry" />
        </mxCell>
        <mxCell id="IWlfBRPp-Ncp1fWSrrZS-59" value="Send customer requirements" style="html=1;whiteSpace=wrap;rounded=1;dropTarget=0;" vertex="1" parent="IWlfBRPp-Ncp1fWSrrZS-8">
          <mxGeometry x="510" y="130" width="120" height="80" as="geometry" />
        </mxCell>
        <mxCell id="IWlfBRPp-Ncp1fWSrrZS-60" value="" style="html=1;shape=message;outlineConnect=0;strokeColor=#666666;gradientDirection=south;fillColor=#000000;" vertex="1" parent="IWlfBRPp-Ncp1fWSrrZS-59">
          <mxGeometry width="20" height="14" relative="1" as="geometry">
            <mxPoint x="7" y="7" as="offset" />
          </mxGeometry>
        </mxCell>
        <mxCell id="IWlfBRPp-Ncp1fWSrrZS-62" value="" style="shape=mxgraph.bpmn.shape;html=1;verticalLabelPosition=bottom;labelBackgroundColor=#ffffff;verticalAlign=top;align=center;perimeter=ellipsePerimeter;outlineConnect=0;outline=throwing;symbol=message;fillColor=#FFFFFF;" vertex="1" parent="IWlfBRPp-Ncp1fWSrrZS-8">
          <mxGeometry x="660" y="150" width="40" height="40" as="geometry" />
        </mxCell>
        <mxCell id="IWlfBRPp-Ncp1fWSrrZS-67" value="Requirements" style="shape=note;whiteSpace=wrap;size=16;html=1;dropTarget=0;verticalAlign=top;labelPosition=center;verticalLabelPosition=bottom;align=center;" vertex="1" parent="IWlfBRPp-Ncp1fWSrrZS-8">
          <mxGeometry x="730" y="150" width="40" height="60" as="geometry" />
        </mxCell>
        <mxCell id="IWlfBRPp-Ncp1fWSrrZS-68" value="" style="html=1;shape=singleArrow;arrowWidth=0.4;arrowSize=0.4;outlineConnect=0;fillColor=#000000;" vertex="1" parent="IWlfBRPp-Ncp1fWSrrZS-67">
          <mxGeometry width="14" height="14" relative="1" as="geometry">
            <mxPoint x="2" y="2" as="offset" />
          </mxGeometry>
        </mxCell>
        <mxCell id="IWlfBRPp-Ncp1fWSrrZS-69" value="" style="startArrow=none;startFill=0;startSize=7;endArrow=open;endFill=0;endSize=10;dashed=1;html=1;exitX=-0.025;exitY=0.65;exitDx=0;exitDy=0;exitPerimeter=0;" edge="1" parent="IWlfBRPp-Ncp1fWSrrZS-8" source="IWlfBRPp-Ncp1fWSrrZS-67">
          <mxGeometry width="100" relative="1" as="geometry">
            <mxPoint x="650" y="89.01999999999998" as="sourcePoint" />
            <mxPoint x="680" y="220" as="targetPoint" />
            <Array as="points">
              <mxPoint x="710" y="189" />
              <mxPoint x="710" y="220" />
            </Array>
          </mxGeometry>
        </mxCell>
        <mxCell id="IWlfBRPp-Ncp1fWSrrZS-212" style="edgeStyle=orthogonalEdgeStyle;rounded=0;orthogonalLoop=1;jettySize=auto;html=1;entryX=0;entryY=0.413;entryDx=0;entryDy=0;entryPerimeter=0;startArrow=none;startFill=0;endArrow=open;endFill=0;exitX=0.5;exitY=0;exitDx=0;exitDy=0;" edge="1" parent="IWlfBRPp-Ncp1fWSrrZS-8" source="IWlfBRPp-Ncp1fWSrrZS-198" target="IWlfBRPp-Ncp1fWSrrZS-210">
          <mxGeometry relative="1" as="geometry" />
        </mxCell>
        <mxCell id="IWlfBRPp-Ncp1fWSrrZS-198" value="" style="shape=mxgraph.bpmn.shape;html=1;verticalLabelPosition=bottom;labelBackgroundColor=#ffffff;verticalAlign=top;align=center;perimeter=ellipsePerimeter;outlineConnect=0;outline=catching;symbol=message;fillColor=#FFFFFF;" vertex="1" parent="IWlfBRPp-Ncp1fWSrrZS-8">
          <mxGeometry x="790" y="120" width="40" height="40" as="geometry" />
        </mxCell>
        <mxCell id="IWlfBRPp-Ncp1fWSrrZS-197" style="edgeStyle=orthogonalEdgeStyle;rounded=0;orthogonalLoop=1;jettySize=auto;html=1;startArrow=none;startFill=0;endArrow=open;endFill=0;" edge="1" parent="IWlfBRPp-Ncp1fWSrrZS-8" source="IWlfBRPp-Ncp1fWSrrZS-62" target="IWlfBRPp-Ncp1fWSrrZS-198">
          <mxGeometry relative="1" as="geometry">
            <mxPoint x="850" y="130" as="targetPoint" />
            <Array as="points">
              <mxPoint x="680" y="130" />
            </Array>
          </mxGeometry>
        </mxCell>
        <mxCell id="IWlfBRPp-Ncp1fWSrrZS-202" value="Completed work oder" style="shape=note;whiteSpace=wrap;size=16;html=1;dropTarget=0;verticalAlign=top;labelPosition=center;verticalLabelPosition=bottom;align=center;" vertex="1" parent="IWlfBRPp-Ncp1fWSrrZS-8">
          <mxGeometry x="850" y="100" width="40" height="60" as="geometry" />
        </mxCell>
        <mxCell id="IWlfBRPp-Ncp1fWSrrZS-203" value="" style="html=1;shape=singleArrow;arrowWidth=0.4;arrowSize=0.4;outlineConnect=0;" vertex="1" parent="IWlfBRPp-Ncp1fWSrrZS-202">
          <mxGeometry width="14" height="14" relative="1" as="geometry">
            <mxPoint x="2" y="2" as="offset" />
          </mxGeometry>
        </mxCell>
        <mxCell id="IWlfBRPp-Ncp1fWSrrZS-208" value="" style="group" vertex="1" connectable="0" parent="IWlfBRPp-Ncp1fWSrrZS-8">
          <mxGeometry x="900" y="20" width="120" height="80" as="geometry" />
        </mxCell>
        <mxCell id="IWlfBRPp-Ncp1fWSrrZS-209" value="" style="group" vertex="1" connectable="0" parent="IWlfBRPp-Ncp1fWSrrZS-208">
          <mxGeometry width="120" height="80" as="geometry" />
        </mxCell>
        <mxCell id="IWlfBRPp-Ncp1fWSrrZS-210" value="Deliver products &lt;br&gt;from warehouse&lt;br&gt;for shipping" style="shape=ext;rounded=1;html=1;fillColor=#FFFFFF;gradientColor=none;" vertex="1" parent="IWlfBRPp-Ncp1fWSrrZS-209">
          <mxGeometry width="120" height="80" as="geometry" />
        </mxCell>
        <mxCell id="IWlfBRPp-Ncp1fWSrrZS-211" value="" style="shape=mxgraph.bpmn.manual_task;html=1;outlineConnect=0;fillColor=#FFFFFF;gradientColor=none;whiteSpace=wrap;" vertex="1" parent="IWlfBRPp-Ncp1fWSrrZS-209">
          <mxGeometry x="7" y="7" width="14" height="14" as="geometry" />
        </mxCell>
        <mxCell id="IWlfBRPp-Ncp1fWSrrZS-221" value="" style="group" vertex="1" connectable="0" parent="IWlfBRPp-Ncp1fWSrrZS-8">
          <mxGeometry x="1000" y="110" width="120" height="80" as="geometry" />
        </mxCell>
        <mxCell id="IWlfBRPp-Ncp1fWSrrZS-222" value="" style="group" vertex="1" connectable="0" parent="IWlfBRPp-Ncp1fWSrrZS-221">
          <mxGeometry width="120" height="80" as="geometry" />
        </mxCell>
        <mxCell id="IWlfBRPp-Ncp1fWSrrZS-223" value="Deliver to customer&lt;br&gt;by the shipping&lt;br&gt;company" style="shape=ext;rounded=1;html=1;fillColor=#FFFFFF;gradientColor=none;" vertex="1" parent="IWlfBRPp-Ncp1fWSrrZS-222">
          <mxGeometry width="120" height="80" as="geometry" />
        </mxCell>
        <mxCell id="IWlfBRPp-Ncp1fWSrrZS-224" value="" style="shape=mxgraph.bpmn.manual_task;html=1;outlineConnect=0;fillColor=#FFFFFF;gradientColor=none;whiteSpace=wrap;" vertex="1" parent="IWlfBRPp-Ncp1fWSrrZS-222">
          <mxGeometry x="7" y="7" width="14" height="14" as="geometry" />
        </mxCell>
        <mxCell id="IWlfBRPp-Ncp1fWSrrZS-225" style="edgeStyle=orthogonalEdgeStyle;rounded=0;orthogonalLoop=1;jettySize=auto;html=1;entryX=0;entryY=0.5;entryDx=0;entryDy=0;startArrow=none;startFill=0;endArrow=open;endFill=0;" edge="1" parent="IWlfBRPp-Ncp1fWSrrZS-8" source="IWlfBRPp-Ncp1fWSrrZS-210" target="IWlfBRPp-Ncp1fWSrrZS-223">
          <mxGeometry relative="1" as="geometry" />
        </mxCell>
        <mxCell id="IWlfBRPp-Ncp1fWSrrZS-226" value="" style="shape=mxgraph.bpmn.shape;html=1;verticalLabelPosition=bottom;labelBackgroundColor=#ffffff;verticalAlign=top;align=center;perimeter=ellipsePerimeter;outlineConnect=0;outline=end;symbol=general;fillColor=#FFFFFF;gradientColor=none;" vertex="1" parent="IWlfBRPp-Ncp1fWSrrZS-8">
          <mxGeometry x="1130" y="60" width="40" height="40" as="geometry" />
        </mxCell>
        <mxCell id="IWlfBRPp-Ncp1fWSrrZS-227" style="edgeStyle=orthogonalEdgeStyle;rounded=0;orthogonalLoop=1;jettySize=auto;html=1;entryX=0;entryY=0.5;entryDx=0;entryDy=0;startArrow=none;startFill=0;endArrow=open;endFill=0;" edge="1" parent="IWlfBRPp-Ncp1fWSrrZS-8" source="IWlfBRPp-Ncp1fWSrrZS-223" target="IWlfBRPp-Ncp1fWSrrZS-226">
          <mxGeometry relative="1" as="geometry">
            <Array as="points">
              <mxPoint x="1060" y="80" />
            </Array>
          </mxGeometry>
        </mxCell>
        <mxCell id="IWlfBRPp-Ncp1fWSrrZS-13" value="" style="startArrow=oval;startFill=0;startSize=7;endArrow=block;endFill=0;endSize=10;dashed=1;html=1;exitX=0.5;exitY=0;exitDx=0;exitDy=0;entryX=0.5;entryY=1;entryDx=0;entryDy=0;" edge="1" parent="1" source="IWlfBRPp-Ncp1fWSrrZS-51" target="IWlfBRPp-Ncp1fWSrrZS-54">
          <mxGeometry width="100" relative="1" as="geometry">
            <mxPoint x="450" y="385" as="sourcePoint" />
            <mxPoint x="450" y="90" as="targetPoint" />
            <Array as="points" />
          </mxGeometry>
        </mxCell>
        <mxCell id="IWlfBRPp-Ncp1fWSrrZS-41" value="Customer" style="swimlane;html=1;horizontal=0;startSize=20;fillColor=#FFFFFF;" vertex="1" parent="1">
          <mxGeometry width="1040" height="180" as="geometry" />
        </mxCell>
        <mxCell id="IWlfBRPp-Ncp1fWSrrZS-207" style="edgeStyle=orthogonalEdgeStyle;rounded=0;orthogonalLoop=1;jettySize=auto;html=1;startArrow=none;startFill=0;endArrow=open;endFill=0;" edge="1" parent="IWlfBRPp-Ncp1fWSrrZS-41" source="IWlfBRPp-Ncp1fWSrrZS-54" target="IWlfBRPp-Ncp1fWSrrZS-142">
          <mxGeometry relative="1" as="geometry" />
        </mxCell>
        <mxCell id="IWlfBRPp-Ncp1fWSrrZS-54" value="" style="shape=mxgraph.bpmn.shape;html=1;verticalLabelPosition=bottom;labelBackgroundColor=#ffffff;verticalAlign=top;align=center;perimeter=ellipsePerimeter;outlineConnect=0;outline=catching;symbol=message;fillColor=#FFFFFF;" vertex="1" parent="IWlfBRPp-Ncp1fWSrrZS-41">
          <mxGeometry x="430" y="70" width="40" height="40" as="geometry" />
        </mxCell>
        <mxCell id="IWlfBRPp-Ncp1fWSrrZS-206" style="edgeStyle=orthogonalEdgeStyle;rounded=0;orthogonalLoop=1;jettySize=auto;html=1;startArrow=none;startFill=0;endArrow=open;endFill=0;" edge="1" parent="IWlfBRPp-Ncp1fWSrrZS-41" source="IWlfBRPp-Ncp1fWSrrZS-55" target="IWlfBRPp-Ncp1fWSrrZS-54">
          <mxGeometry relative="1" as="geometry" />
        </mxCell>
        <mxCell id="IWlfBRPp-Ncp1fWSrrZS-55" value="" style="shape=mxgraph.bpmn.shape;html=1;verticalLabelPosition=bottom;labelBackgroundColor=#ffffff;verticalAlign=top;align=center;perimeter=ellipsePerimeter;outlineConnect=0;outline=throwing;symbol=message;fillColor=#FFFFFF;" vertex="1" parent="IWlfBRPp-Ncp1fWSrrZS-41">
          <mxGeometry x="180" y="80" width="40" height="40" as="geometry" />
        </mxCell>
        <mxCell id="IWlfBRPp-Ncp1fWSrrZS-142" value="" style="shape=mxgraph.bpmn.shape;html=1;verticalLabelPosition=bottom;labelBackgroundColor=#ffffff;verticalAlign=top;align=center;perimeter=ellipsePerimeter;outlineConnect=0;outline=catching;symbol=message;fillColor=#FFFFFF;" vertex="1" parent="IWlfBRPp-Ncp1fWSrrZS-41">
          <mxGeometry x="670" y="70" width="40" height="40" as="geometry" />
        </mxCell>
        <mxCell id="IWlfBRPp-Ncp1fWSrrZS-9" value="" style="startArrow=oval;startFill=0;startSize=7;endArrow=block;endFill=0;endSize=10;dashed=1;html=1;entryX=0.5;entryY=0;entryDx=0;entryDy=0;exitX=0.5;exitY=1;exitDx=0;exitDy=0;" edge="1" parent="1" source="IWlfBRPp-Ncp1fWSrrZS-55" target="IWlfBRPp-Ncp1fWSrrZS-50">
          <mxGeometry width="100" relative="1" as="geometry">
            <mxPoint x="200" y="120" as="sourcePoint" />
            <mxPoint x="200" y="290" as="targetPoint" />
          </mxGeometry>
        </mxCell>
        <mxCell id="IWlfBRPp-Ncp1fWSrrZS-57" value="Aseembly department" style="swimlane;html=1;horizontal=0;startSize=20;fillColor=#FFFFFF;" vertex="1" parent="1">
          <mxGeometry y="472" width="1640" height="225" as="geometry" />
        </mxCell>
        <mxCell id="IWlfBRPp-Ncp1fWSrrZS-73" style="edgeStyle=orthogonalEdgeStyle;rounded=0;orthogonalLoop=1;jettySize=auto;html=1;startArrow=none;startFill=0;endArrow=open;endFill=0;" edge="1" parent="IWlfBRPp-Ncp1fWSrrZS-57" source="IWlfBRPp-Ncp1fWSrrZS-65" target="IWlfBRPp-Ncp1fWSrrZS-70">
          <mxGeometry relative="1" as="geometry" />
        </mxCell>
        <mxCell id="IWlfBRPp-Ncp1fWSrrZS-65" value="" style="shape=mxgraph.bpmn.shape;html=1;verticalLabelPosition=bottom;labelBackgroundColor=#ffffff;verticalAlign=top;align=center;perimeter=ellipsePerimeter;outlineConnect=0;outline=catching;symbol=message;fillColor=#FFFFFF;" vertex="1" parent="IWlfBRPp-Ncp1fWSrrZS-57">
          <mxGeometry x="70" y="48" width="40" height="40" as="geometry" />
        </mxCell>
        <mxCell id="IWlfBRPp-Ncp1fWSrrZS-80" style="edgeStyle=orthogonalEdgeStyle;rounded=0;orthogonalLoop=1;jettySize=auto;html=1;startArrow=none;startFill=0;endArrow=open;endFill=0;" edge="1" parent="IWlfBRPp-Ncp1fWSrrZS-57" source="IWlfBRPp-Ncp1fWSrrZS-70" target="IWlfBRPp-Ncp1fWSrrZS-79">
          <mxGeometry relative="1" as="geometry" />
        </mxCell>
        <mxCell id="IWlfBRPp-Ncp1fWSrrZS-70" value="Check parts" style="html=1;whiteSpace=wrap;rounded=1;dropTarget=0;gradientColor=none;fillColor=#FFFFFF;" vertex="1" parent="IWlfBRPp-Ncp1fWSrrZS-57">
          <mxGeometry x="150" y="28" width="120" height="80" as="geometry" />
        </mxCell>
        <mxCell id="IWlfBRPp-Ncp1fWSrrZS-71" value="" style="html=1;shape=mxgraph.bpmn.user_task;outlineConnect=0;" vertex="1" parent="IWlfBRPp-Ncp1fWSrrZS-70">
          <mxGeometry width="14" height="14" relative="1" as="geometry">
            <mxPoint x="7" y="7" as="offset" />
          </mxGeometry>
        </mxCell>
        <mxCell id="IWlfBRPp-Ncp1fWSrrZS-83" value="No" style="edgeStyle=orthogonalEdgeStyle;rounded=0;orthogonalLoop=1;jettySize=auto;html=1;startArrow=none;startFill=0;endArrow=open;endFill=0;" edge="1" parent="IWlfBRPp-Ncp1fWSrrZS-57" source="IWlfBRPp-Ncp1fWSrrZS-79" target="IWlfBRPp-Ncp1fWSrrZS-81">
          <mxGeometry y="10" relative="1" as="geometry">
            <mxPoint as="offset" />
          </mxGeometry>
        </mxCell>
        <mxCell id="IWlfBRPp-Ncp1fWSrrZS-79" value="All parts available" style="rhombus;whiteSpace=wrap;html=1;fillColor=#FFFFFF;gradientColor=none;" vertex="1" parent="IWlfBRPp-Ncp1fWSrrZS-57">
          <mxGeometry x="310" y="28" width="80" height="80" as="geometry" />
        </mxCell>
        <mxCell id="IWlfBRPp-Ncp1fWSrrZS-86" style="edgeStyle=orthogonalEdgeStyle;rounded=0;orthogonalLoop=1;jettySize=auto;html=1;entryX=0;entryY=0.5;entryDx=0;entryDy=0;startArrow=none;startFill=0;endArrow=open;endFill=0;" edge="1" parent="IWlfBRPp-Ncp1fWSrrZS-57" source="IWlfBRPp-Ncp1fWSrrZS-81" target="IWlfBRPp-Ncp1fWSrrZS-85">
          <mxGeometry relative="1" as="geometry" />
        </mxCell>
        <mxCell id="IWlfBRPp-Ncp1fWSrrZS-81" value="Send order" style="html=1;whiteSpace=wrap;rounded=1;dropTarget=0;" vertex="1" parent="IWlfBRPp-Ncp1fWSrrZS-57">
          <mxGeometry x="320" y="138" width="120" height="80" as="geometry" />
        </mxCell>
        <mxCell id="IWlfBRPp-Ncp1fWSrrZS-82" value="" style="html=1;shape=message;outlineConnect=0;strokeColor=#666666;gradientDirection=south;fillColor=#000000;" vertex="1" parent="IWlfBRPp-Ncp1fWSrrZS-81">
          <mxGeometry width="20" height="14" relative="1" as="geometry">
            <mxPoint x="7" y="7" as="offset" />
          </mxGeometry>
        </mxCell>
        <mxCell id="IWlfBRPp-Ncp1fWSrrZS-100" style="edgeStyle=orthogonalEdgeStyle;rounded=0;orthogonalLoop=1;jettySize=auto;html=1;startArrow=none;startFill=0;endArrow=open;endFill=0;" edge="1" parent="IWlfBRPp-Ncp1fWSrrZS-57" source="IWlfBRPp-Ncp1fWSrrZS-85" target="IWlfBRPp-Ncp1fWSrrZS-99">
          <mxGeometry relative="1" as="geometry">
            <Array as="points">
              <mxPoint x="715" y="78" />
            </Array>
          </mxGeometry>
        </mxCell>
        <mxCell id="IWlfBRPp-Ncp1fWSrrZS-85" value="" style="shape=mxgraph.bpmn.shape;html=1;verticalLabelPosition=bottom;labelBackgroundColor=#ffffff;verticalAlign=top;align=center;perimeter=ellipsePerimeter;outlineConnect=0;outline=throwing;symbol=message;fillColor=#FFFFFF;" vertex="1" parent="IWlfBRPp-Ncp1fWSrrZS-57">
          <mxGeometry x="590" y="48" width="40" height="40" as="geometry" />
        </mxCell>
        <mxCell id="IWlfBRPp-Ncp1fWSrrZS-90" value="parts order" style="shape=note;whiteSpace=wrap;size=16;html=1;dropTarget=0;verticalAlign=top;labelPosition=center;verticalLabelPosition=bottom;align=center;" vertex="1" parent="IWlfBRPp-Ncp1fWSrrZS-57">
          <mxGeometry x="530" y="128" width="40" height="60" as="geometry" />
        </mxCell>
        <mxCell id="IWlfBRPp-Ncp1fWSrrZS-91" value="" style="html=1;shape=singleArrow;arrowWidth=0.4;arrowSize=0.4;outlineConnect=0;fillColor=#000000;" vertex="1" parent="IWlfBRPp-Ncp1fWSrrZS-90">
          <mxGeometry width="14" height="14" relative="1" as="geometry">
            <mxPoint x="2" y="2" as="offset" />
          </mxGeometry>
        </mxCell>
        <mxCell id="IWlfBRPp-Ncp1fWSrrZS-92" value="" style="startArrow=none;startFill=0;startSize=7;endArrow=open;endFill=0;endSize=10;dashed=1;html=1;exitX=0;exitY=0;exitDx=40;exitDy=38;exitPerimeter=0;" edge="1" parent="IWlfBRPp-Ncp1fWSrrZS-57" source="IWlfBRPp-Ncp1fWSrrZS-90">
          <mxGeometry width="100" relative="1" as="geometry">
            <mxPoint x="550" y="157.51999999999998" as="sourcePoint" />
            <mxPoint x="610" y="166" as="targetPoint" />
            <Array as="points" />
          </mxGeometry>
        </mxCell>
        <mxCell id="IWlfBRPp-Ncp1fWSrrZS-93" value="Parts database" style="shape=datastore;whiteSpace=wrap;html=1;fillColor=#FFFFFF;gradientColor=none;labelPosition=center;verticalLabelPosition=middle;align=center;verticalAlign=middle;" vertex="1" parent="IWlfBRPp-Ncp1fWSrrZS-57">
          <mxGeometry x="60" y="128" width="60" height="60" as="geometry" />
        </mxCell>
        <mxCell id="IWlfBRPp-Ncp1fWSrrZS-94" value="" style="startArrow=none;startFill=0;startSize=7;endArrow=open;endFill=0;endSize=10;dashed=1;html=1;exitX=0.442;exitY=1.038;exitDx=0;exitDy=0;exitPerimeter=0;entryX=1;entryY=0.5;entryDx=0;entryDy=0;" edge="1" parent="IWlfBRPp-Ncp1fWSrrZS-57" source="IWlfBRPp-Ncp1fWSrrZS-70" target="IWlfBRPp-Ncp1fWSrrZS-93">
          <mxGeometry width="100" relative="1" as="geometry">
            <mxPoint x="200" y="148" as="sourcePoint" />
            <mxPoint x="260" y="148" as="targetPoint" />
            <Array as="points">
              <mxPoint x="203" y="158" />
            </Array>
          </mxGeometry>
        </mxCell>
        <mxCell id="IWlfBRPp-Ncp1fWSrrZS-144" style="edgeStyle=orthogonalEdgeStyle;rounded=0;orthogonalLoop=1;jettySize=auto;html=1;startArrow=none;startFill=0;endArrow=open;endFill=0;" edge="1" parent="IWlfBRPp-Ncp1fWSrrZS-57" source="IWlfBRPp-Ncp1fWSrrZS-99" target="IWlfBRPp-Ncp1fWSrrZS-133">
          <mxGeometry relative="1" as="geometry" />
        </mxCell>
        <mxCell id="IWlfBRPp-Ncp1fWSrrZS-99" value="" style="shape=mxgraph.bpmn.shape;html=1;verticalLabelPosition=bottom;labelBackgroundColor=#ffffff;verticalAlign=top;align=center;perimeter=rhombusPerimeter;background=gateway;outlineConnect=0;outline=none;symbol=exclusiveGw;" vertex="1" parent="IWlfBRPp-Ncp1fWSrrZS-57">
          <mxGeometry x="690" y="13" width="50" height="50" as="geometry" />
        </mxCell>
        <mxCell id="IWlfBRPp-Ncp1fWSrrZS-95" style="edgeStyle=orthogonalEdgeStyle;rounded=0;orthogonalLoop=1;jettySize=auto;html=1;startArrow=none;startFill=0;endArrow=open;endFill=0;" edge="1" parent="IWlfBRPp-Ncp1fWSrrZS-57" source="IWlfBRPp-Ncp1fWSrrZS-79" target="IWlfBRPp-Ncp1fWSrrZS-99">
          <mxGeometry relative="1" as="geometry">
            <mxPoint x="710" y="38" as="targetPoint" />
            <Array as="points">
              <mxPoint x="690" y="38" />
            </Array>
          </mxGeometry>
        </mxCell>
        <mxCell id="IWlfBRPp-Ncp1fWSrrZS-96" value="Yes" style="edgeLabel;html=1;align=center;verticalAlign=middle;resizable=0;points=[];" vertex="1" connectable="0" parent="IWlfBRPp-Ncp1fWSrrZS-95">
          <mxGeometry x="-0.4808" y="3" relative="1" as="geometry">
            <mxPoint as="offset" />
          </mxGeometry>
        </mxCell>
        <mxCell id="IWlfBRPp-Ncp1fWSrrZS-136" style="edgeStyle=orthogonalEdgeStyle;rounded=0;orthogonalLoop=1;jettySize=auto;html=1;entryX=0;entryY=0.5;entryDx=0;entryDy=0;startArrow=none;startFill=0;endArrow=open;endFill=0;" edge="1" parent="IWlfBRPp-Ncp1fWSrrZS-57" source="IWlfBRPp-Ncp1fWSrrZS-133" target="IWlfBRPp-Ncp1fWSrrZS-135">
          <mxGeometry relative="1" as="geometry" />
        </mxCell>
        <mxCell id="IWlfBRPp-Ncp1fWSrrZS-133" value="Produce delivery schedule" style="html=1;whiteSpace=wrap;rounded=1;dropTarget=0;gradientColor=none;fillColor=#FFFFFF;" vertex="1" parent="IWlfBRPp-Ncp1fWSrrZS-57">
          <mxGeometry x="780" y="28" width="120" height="80" as="geometry" />
        </mxCell>
        <mxCell id="IWlfBRPp-Ncp1fWSrrZS-134" value="" style="html=1;shape=mxgraph.bpmn.user_task;outlineConnect=0;" vertex="1" parent="IWlfBRPp-Ncp1fWSrrZS-133">
          <mxGeometry width="14" height="14" relative="1" as="geometry">
            <mxPoint x="7" y="7" as="offset" />
          </mxGeometry>
        </mxCell>
        <mxCell id="IWlfBRPp-Ncp1fWSrrZS-147" style="edgeStyle=orthogonalEdgeStyle;rounded=0;orthogonalLoop=1;jettySize=auto;html=1;entryX=0.5;entryY=0;entryDx=0;entryDy=0;startArrow=none;startFill=0;endArrow=open;endFill=0;" edge="1" parent="IWlfBRPp-Ncp1fWSrrZS-57" source="IWlfBRPp-Ncp1fWSrrZS-135" target="IWlfBRPp-Ncp1fWSrrZS-149">
          <mxGeometry relative="1" as="geometry">
            <mxPoint x="1065" y="95" as="targetPoint" />
            <Array as="points">
              <mxPoint x="1070" y="68" />
            </Array>
          </mxGeometry>
        </mxCell>
        <mxCell id="IWlfBRPp-Ncp1fWSrrZS-135" value="" style="shape=mxgraph.bpmn.shape;html=1;verticalLabelPosition=bottom;labelBackgroundColor=#ffffff;verticalAlign=top;align=center;perimeter=ellipsePerimeter;outlineConnect=0;outline=throwing;symbol=message;fillColor=#FFFFFF;" vertex="1" parent="IWlfBRPp-Ncp1fWSrrZS-57">
          <mxGeometry x="940" y="48" width="40" height="40" as="geometry" />
        </mxCell>
        <mxCell id="IWlfBRPp-Ncp1fWSrrZS-137" value="Delivery schedule" style="shape=note;whiteSpace=wrap;size=16;html=1;dropTarget=0;verticalAlign=top;labelPosition=center;verticalLabelPosition=bottom;align=center;" vertex="1" parent="IWlfBRPp-Ncp1fWSrrZS-57">
          <mxGeometry x="870" y="128" width="40" height="60" as="geometry" />
        </mxCell>
        <mxCell id="IWlfBRPp-Ncp1fWSrrZS-138" value="" style="html=1;shape=singleArrow;arrowWidth=0.4;arrowSize=0.4;outlineConnect=0;fillColor=#000000;" vertex="1" parent="IWlfBRPp-Ncp1fWSrrZS-137">
          <mxGeometry width="14" height="14" relative="1" as="geometry">
            <mxPoint x="2" y="2" as="offset" />
          </mxGeometry>
        </mxCell>
        <mxCell id="IWlfBRPp-Ncp1fWSrrZS-140" value="" style="startArrow=none;startFill=0;startSize=7;endArrow=open;endFill=0;endSize=10;dashed=1;html=1;exitX=0;exitY=0;exitDx=40;exitDy=38;entryX=0.5;entryY=1;entryDx=0;entryDy=0;exitPerimeter=0;" edge="1" parent="IWlfBRPp-Ncp1fWSrrZS-57" source="IWlfBRPp-Ncp1fWSrrZS-137" target="IWlfBRPp-Ncp1fWSrrZS-135">
          <mxGeometry width="100" relative="1" as="geometry">
            <mxPoint x="1030" y="138" as="sourcePoint" />
            <mxPoint x="1102" y="178.98000000000002" as="targetPoint" />
            <Array as="points">
              <mxPoint x="960" y="166" />
            </Array>
          </mxGeometry>
        </mxCell>
        <mxCell id="IWlfBRPp-Ncp1fWSrrZS-143" value="" style="startArrow=none;startFill=0;startSize=7;endArrow=open;endFill=0;endSize=10;dashed=1;html=1;exitX=0.5;exitY=1;exitDx=0;exitDy=0;entryX=0.025;entryY=0.633;entryDx=0;entryDy=0;entryPerimeter=0;" edge="1" parent="IWlfBRPp-Ncp1fWSrrZS-57" source="IWlfBRPp-Ncp1fWSrrZS-133" target="IWlfBRPp-Ncp1fWSrrZS-137">
          <mxGeometry width="100" relative="1" as="geometry">
            <mxPoint x="900" y="186" as="sourcePoint" />
            <mxPoint x="970" y="98" as="targetPoint" />
            <Array as="points">
              <mxPoint x="840" y="166" />
            </Array>
          </mxGeometry>
        </mxCell>
        <mxCell id="IWlfBRPp-Ncp1fWSrrZS-151" style="edgeStyle=orthogonalEdgeStyle;rounded=0;orthogonalLoop=1;jettySize=auto;html=1;startArrow=none;startFill=0;endArrow=open;endFill=0;exitX=1;exitY=0.5;exitDx=0;exitDy=0;" edge="1" parent="IWlfBRPp-Ncp1fWSrrZS-57" source="IWlfBRPp-Ncp1fWSrrZS-149" target="IWlfBRPp-Ncp1fWSrrZS-150">
          <mxGeometry relative="1" as="geometry">
            <Array as="points">
              <mxPoint x="1140" y="118" />
              <mxPoint x="1140" y="78" />
              <mxPoint x="1195" y="78" />
            </Array>
          </mxGeometry>
        </mxCell>
        <mxCell id="IWlfBRPp-Ncp1fWSrrZS-153" value="No" style="edgeLabel;html=1;align=center;verticalAlign=middle;resizable=0;points=[];" vertex="1" connectable="0" parent="IWlfBRPp-Ncp1fWSrrZS-151">
          <mxGeometry x="0.2444" y="1" relative="1" as="geometry">
            <mxPoint y="-9" as="offset" />
          </mxGeometry>
        </mxCell>
        <mxCell id="IWlfBRPp-Ncp1fWSrrZS-154" style="edgeStyle=orthogonalEdgeStyle;rounded=0;orthogonalLoop=1;jettySize=auto;html=1;startArrow=none;startFill=0;endArrow=open;endFill=0;entryX=0.017;entryY=0.338;entryDx=0;entryDy=0;entryPerimeter=0;" edge="1" parent="IWlfBRPp-Ncp1fWSrrZS-57" source="IWlfBRPp-Ncp1fWSrrZS-149" target="IWlfBRPp-Ncp1fWSrrZS-157">
          <mxGeometry relative="1" as="geometry">
            <mxPoint x="1160" y="168" as="targetPoint" />
            <Array as="points">
              <mxPoint x="1070" y="165" />
            </Array>
          </mxGeometry>
        </mxCell>
        <mxCell id="IWlfBRPp-Ncp1fWSrrZS-159" value="Yes" style="edgeLabel;html=1;align=center;verticalAlign=middle;resizable=0;points=[];" vertex="1" connectable="0" parent="IWlfBRPp-Ncp1fWSrrZS-154">
          <mxGeometry x="-0.4939" y="-1" relative="1" as="geometry">
            <mxPoint x="27" y="11.99" as="offset" />
          </mxGeometry>
        </mxCell>
        <mxCell id="IWlfBRPp-Ncp1fWSrrZS-149" value="Waiting for parts" style="rhombus;whiteSpace=wrap;html=1;fillColor=#FFFFFF;gradientColor=none;" vertex="1" parent="IWlfBRPp-Ncp1fWSrrZS-57">
          <mxGeometry x="1030" y="78" width="80" height="80" as="geometry" />
        </mxCell>
        <mxCell id="IWlfBRPp-Ncp1fWSrrZS-186" style="edgeStyle=orthogonalEdgeStyle;rounded=0;orthogonalLoop=1;jettySize=auto;html=1;startArrow=none;startFill=0;endArrow=open;endFill=0;" edge="1" parent="IWlfBRPp-Ncp1fWSrrZS-57" source="IWlfBRPp-Ncp1fWSrrZS-150" target="IWlfBRPp-Ncp1fWSrrZS-184">
          <mxGeometry relative="1" as="geometry" />
        </mxCell>
        <mxCell id="IWlfBRPp-Ncp1fWSrrZS-150" value="" style="shape=mxgraph.bpmn.shape;html=1;verticalLabelPosition=bottom;labelBackgroundColor=#ffffff;verticalAlign=top;align=center;perimeter=rhombusPerimeter;background=gateway;outlineConnect=0;outline=none;symbol=exclusiveGw;fillColor=#FFFFFF;gradientColor=none;" vertex="1" parent="IWlfBRPp-Ncp1fWSrrZS-57">
          <mxGeometry x="1210" y="28" width="50" height="50" as="geometry" />
        </mxCell>
        <mxCell id="IWlfBRPp-Ncp1fWSrrZS-180" style="edgeStyle=orthogonalEdgeStyle;rounded=0;orthogonalLoop=1;jettySize=auto;html=1;entryX=0.5;entryY=1;entryDx=0;entryDy=0;startArrow=none;startFill=0;endArrow=open;endFill=0;" edge="1" parent="IWlfBRPp-Ncp1fWSrrZS-57" source="IWlfBRPp-Ncp1fWSrrZS-157" target="IWlfBRPp-Ncp1fWSrrZS-150">
          <mxGeometry relative="1" as="geometry" />
        </mxCell>
        <mxCell id="IWlfBRPp-Ncp1fWSrrZS-157" value="Receive prdocuts" style="html=1;whiteSpace=wrap;rounded=1;dropTarget=0;" vertex="1" parent="IWlfBRPp-Ncp1fWSrrZS-57">
          <mxGeometry x="1150" y="113" width="120" height="80" as="geometry" />
        </mxCell>
        <mxCell id="IWlfBRPp-Ncp1fWSrrZS-158" value="" style="html=1;shape=message;outlineConnect=0;" vertex="1" parent="IWlfBRPp-Ncp1fWSrrZS-157">
          <mxGeometry width="20" height="14" relative="1" as="geometry">
            <mxPoint x="7" y="7" as="offset" />
          </mxGeometry>
        </mxCell>
        <mxCell id="IWlfBRPp-Ncp1fWSrrZS-170" value="Parts delivered" style="shape=note;whiteSpace=wrap;size=16;html=1;dropTarget=0;verticalAlign=top;labelPosition=center;verticalLabelPosition=bottom;align=center;" vertex="1" parent="IWlfBRPp-Ncp1fWSrrZS-57">
          <mxGeometry x="1300" y="128" width="40" height="60" as="geometry" />
        </mxCell>
        <mxCell id="IWlfBRPp-Ncp1fWSrrZS-171" value="" style="html=1;shape=singleArrow;arrowWidth=0.4;arrowSize=0.4;outlineConnect=0;" vertex="1" parent="IWlfBRPp-Ncp1fWSrrZS-170">
          <mxGeometry width="14" height="14" relative="1" as="geometry">
            <mxPoint x="2" y="2" as="offset" />
          </mxGeometry>
        </mxCell>
        <mxCell id="IWlfBRPp-Ncp1fWSrrZS-179" value="" style="startArrow=none;startFill=0;startSize=7;endArrow=open;endFill=0;endSize=10;dashed=1;html=1;exitX=-0.075;exitY=0.667;exitDx=0;exitDy=0;exitPerimeter=0;" edge="1" parent="IWlfBRPp-Ncp1fWSrrZS-57" source="IWlfBRPp-Ncp1fWSrrZS-170">
          <mxGeometry width="100" relative="1" as="geometry">
            <mxPoint x="1230" y="216" as="sourcePoint" />
            <mxPoint x="1220" y="216" as="targetPoint" />
            <Array as="points">
              <mxPoint x="1280" y="168" />
              <mxPoint x="1280" y="216" />
            </Array>
          </mxGeometry>
        </mxCell>
        <mxCell id="IWlfBRPp-Ncp1fWSrrZS-188" value="" style="group" vertex="1" connectable="0" parent="IWlfBRPp-Ncp1fWSrrZS-57">
          <mxGeometry x="1300" y="33" width="120" height="80" as="geometry" />
        </mxCell>
        <mxCell id="IWlfBRPp-Ncp1fWSrrZS-193" value="" style="group" vertex="1" connectable="0" parent="IWlfBRPp-Ncp1fWSrrZS-188">
          <mxGeometry width="120" height="80" as="geometry" />
        </mxCell>
        <mxCell id="IWlfBRPp-Ncp1fWSrrZS-184" value="Assemble products" style="shape=ext;rounded=1;html=1;fillColor=#FFFFFF;gradientColor=none;" vertex="1" parent="IWlfBRPp-Ncp1fWSrrZS-193">
          <mxGeometry width="120" height="80" as="geometry" />
        </mxCell>
        <mxCell id="IWlfBRPp-Ncp1fWSrrZS-185" value="" style="shape=mxgraph.bpmn.manual_task;html=1;outlineConnect=0;fillColor=#FFFFFF;gradientColor=none;whiteSpace=wrap;" vertex="1" parent="IWlfBRPp-Ncp1fWSrrZS-193">
          <mxGeometry x="7" y="7" width="14" height="14" as="geometry" />
        </mxCell>
        <mxCell id="IWlfBRPp-Ncp1fWSrrZS-200" style="edgeStyle=orthogonalEdgeStyle;rounded=0;orthogonalLoop=1;jettySize=auto;html=1;entryX=0;entryY=0.5;entryDx=0;entryDy=0;startArrow=none;startFill=0;endArrow=open;endFill=0;" edge="1" parent="IWlfBRPp-Ncp1fWSrrZS-57" source="IWlfBRPp-Ncp1fWSrrZS-194" target="IWlfBRPp-Ncp1fWSrrZS-199">
          <mxGeometry relative="1" as="geometry" />
        </mxCell>
        <mxCell id="IWlfBRPp-Ncp1fWSrrZS-194" value="Produce completed work order" style="html=1;whiteSpace=wrap;rounded=1;dropTarget=0;gradientColor=none;fillColor=#FFFFFF;" vertex="1" parent="IWlfBRPp-Ncp1fWSrrZS-57">
          <mxGeometry x="1450" y="33" width="120" height="80" as="geometry" />
        </mxCell>
        <mxCell id="IWlfBRPp-Ncp1fWSrrZS-195" value="" style="html=1;shape=mxgraph.bpmn.user_task;outlineConnect=0;" vertex="1" parent="IWlfBRPp-Ncp1fWSrrZS-194">
          <mxGeometry width="14" height="14" relative="1" as="geometry">
            <mxPoint x="7" y="7" as="offset" />
          </mxGeometry>
        </mxCell>
        <mxCell id="IWlfBRPp-Ncp1fWSrrZS-196" style="edgeStyle=orthogonalEdgeStyle;rounded=0;orthogonalLoop=1;jettySize=auto;html=1;entryX=0;entryY=0.5;entryDx=0;entryDy=0;startArrow=none;startFill=0;endArrow=open;endFill=0;" edge="1" parent="IWlfBRPp-Ncp1fWSrrZS-57" source="IWlfBRPp-Ncp1fWSrrZS-184" target="IWlfBRPp-Ncp1fWSrrZS-194">
          <mxGeometry relative="1" as="geometry" />
        </mxCell>
        <mxCell id="IWlfBRPp-Ncp1fWSrrZS-199" value="" style="shape=mxgraph.bpmn.shape;html=1;verticalLabelPosition=bottom;labelBackgroundColor=#ffffff;verticalAlign=top;align=center;perimeter=ellipsePerimeter;outlineConnect=0;outline=throwing;symbol=message;fillColor=#FFFFFF;" vertex="1" parent="IWlfBRPp-Ncp1fWSrrZS-57">
          <mxGeometry x="1590" y="53" width="40" height="40" as="geometry" />
        </mxCell>
        <mxCell id="IWlfBRPp-Ncp1fWSrrZS-66" value="" style="startArrow=oval;startFill=0;startSize=7;endArrow=block;endFill=0;endSize=10;dashed=1;html=1;exitX=0.5;exitY=1;exitDx=0;exitDy=0;entryX=0.5;entryY=0;entryDx=0;entryDy=0;" edge="1" parent="1" source="IWlfBRPp-Ncp1fWSrrZS-62" target="IWlfBRPp-Ncp1fWSrrZS-65">
          <mxGeometry width="100" relative="1" as="geometry">
            <mxPoint x="360" y="380" as="sourcePoint" />
            <mxPoint x="460" y="380" as="targetPoint" />
            <Array as="points">
              <mxPoint x="680" y="490" />
              <mxPoint x="90" y="490" />
            </Array>
          </mxGeometry>
        </mxCell>
        <mxCell id="IWlfBRPp-Ncp1fWSrrZS-84" value="Parts department" style="swimlane;html=1;horizontal=0;startSize=20;fillColor=#FFFFFF;gradientColor=none;" vertex="1" parent="1">
          <mxGeometry y="720" width="1040" height="240" as="geometry" />
        </mxCell>
        <mxCell id="IWlfBRPp-Ncp1fWSrrZS-88" value="" style="shape=mxgraph.bpmn.shape;html=1;verticalLabelPosition=bottom;labelBackgroundColor=#ffffff;verticalAlign=top;align=center;perimeter=ellipsePerimeter;outlineConnect=0;outline=catching;symbol=message;fillColor=#FFFFFF;" vertex="1" parent="IWlfBRPp-Ncp1fWSrrZS-84">
          <mxGeometry x="40" y="60" width="40" height="40" as="geometry" />
        </mxCell>
        <mxCell id="IWlfBRPp-Ncp1fWSrrZS-107" style="edgeStyle=orthogonalEdgeStyle;rounded=0;orthogonalLoop=1;jettySize=auto;html=1;entryX=0;entryY=0.5;entryDx=0;entryDy=0;startArrow=none;startFill=0;endArrow=open;endFill=0;" edge="1" parent="IWlfBRPp-Ncp1fWSrrZS-84" source="IWlfBRPp-Ncp1fWSrrZS-102" target="IWlfBRPp-Ncp1fWSrrZS-106">
          <mxGeometry relative="1" as="geometry" />
        </mxCell>
        <mxCell id="IWlfBRPp-Ncp1fWSrrZS-102" value="Check purchase order" style="html=1;whiteSpace=wrap;rounded=1;dropTarget=0;gradientColor=none;fillColor=#FFFFFF;" vertex="1" parent="IWlfBRPp-Ncp1fWSrrZS-84">
          <mxGeometry x="120" y="40" width="120" height="80" as="geometry" />
        </mxCell>
        <mxCell id="IWlfBRPp-Ncp1fWSrrZS-103" value="" style="html=1;shape=mxgraph.bpmn.user_task;outlineConnect=0;" vertex="1" parent="IWlfBRPp-Ncp1fWSrrZS-102">
          <mxGeometry width="14" height="14" relative="1" as="geometry">
            <mxPoint x="7" y="7" as="offset" />
          </mxGeometry>
        </mxCell>
        <mxCell id="IWlfBRPp-Ncp1fWSrrZS-105" style="edgeStyle=orthogonalEdgeStyle;rounded=0;orthogonalLoop=1;jettySize=auto;html=1;startArrow=none;startFill=0;endArrow=open;endFill=0;entryX=0;entryY=0.5;entryDx=0;entryDy=0;" edge="1" parent="IWlfBRPp-Ncp1fWSrrZS-84" source="IWlfBRPp-Ncp1fWSrrZS-88" target="IWlfBRPp-Ncp1fWSrrZS-102">
          <mxGeometry relative="1" as="geometry">
            <mxPoint x="110" y="80" as="targetPoint" />
          </mxGeometry>
        </mxCell>
        <mxCell id="IWlfBRPp-Ncp1fWSrrZS-111" style="edgeStyle=orthogonalEdgeStyle;rounded=0;orthogonalLoop=1;jettySize=auto;html=1;entryX=0;entryY=0.5;entryDx=0;entryDy=0;startArrow=none;startFill=0;endArrow=open;endFill=0;" edge="1" parent="IWlfBRPp-Ncp1fWSrrZS-84" source="IWlfBRPp-Ncp1fWSrrZS-106" target="IWlfBRPp-Ncp1fWSrrZS-108">
          <mxGeometry relative="1" as="geometry" />
        </mxCell>
        <mxCell id="IWlfBRPp-Ncp1fWSrrZS-112" value="Yes" style="edgeLabel;html=1;align=center;verticalAlign=middle;resizable=0;points=[];" vertex="1" connectable="0" parent="IWlfBRPp-Ncp1fWSrrZS-111">
          <mxGeometry x="-0.2533" y="2" relative="1" as="geometry">
            <mxPoint as="offset" />
          </mxGeometry>
        </mxCell>
        <mxCell id="IWlfBRPp-Ncp1fWSrrZS-115" style="edgeStyle=orthogonalEdgeStyle;rounded=0;orthogonalLoop=1;jettySize=auto;html=1;entryX=-0.025;entryY=0.675;entryDx=0;entryDy=0;startArrow=none;startFill=0;endArrow=open;endFill=0;entryPerimeter=0;" edge="1" parent="IWlfBRPp-Ncp1fWSrrZS-84" source="IWlfBRPp-Ncp1fWSrrZS-106" target="IWlfBRPp-Ncp1fWSrrZS-117">
          <mxGeometry relative="1" as="geometry">
            <mxPoint x="354" y="190" as="targetPoint" />
            <Array as="points">
              <mxPoint x="310" y="194" />
            </Array>
          </mxGeometry>
        </mxCell>
        <mxCell id="IWlfBRPp-Ncp1fWSrrZS-116" value="No" style="edgeLabel;html=1;align=center;verticalAlign=middle;resizable=0;points=[];" vertex="1" connectable="0" parent="IWlfBRPp-Ncp1fWSrrZS-115">
          <mxGeometry x="-0.6842" y="-1" relative="1" as="geometry">
            <mxPoint x="11" y="12" as="offset" />
          </mxGeometry>
        </mxCell>
        <mxCell id="IWlfBRPp-Ncp1fWSrrZS-106" value="All parts available" style="rhombus;whiteSpace=wrap;html=1;fillColor=#FFFFFF;gradientColor=none;" vertex="1" parent="IWlfBRPp-Ncp1fWSrrZS-84">
          <mxGeometry x="270" y="40" width="80" height="80" as="geometry" />
        </mxCell>
        <mxCell id="IWlfBRPp-Ncp1fWSrrZS-177" style="edgeStyle=orthogonalEdgeStyle;rounded=0;orthogonalLoop=1;jettySize=auto;html=1;entryX=0;entryY=0.5;entryDx=0;entryDy=0;startArrow=none;startFill=0;endArrow=open;endFill=0;" edge="1" parent="IWlfBRPp-Ncp1fWSrrZS-84" source="IWlfBRPp-Ncp1fWSrrZS-108" target="IWlfBRPp-Ncp1fWSrrZS-173">
          <mxGeometry relative="1" as="geometry" />
        </mxCell>
        <mxCell id="IWlfBRPp-Ncp1fWSrrZS-108" value="" style="shape=mxgraph.bpmn.shape;html=1;verticalLabelPosition=bottom;labelBackgroundColor=#ffffff;verticalAlign=top;align=center;perimeter=rhombusPerimeter;background=gateway;outlineConnect=0;outline=none;symbol=exclusiveGw;fillColor=#FFFFFF;gradientColor=none;" vertex="1" parent="IWlfBRPp-Ncp1fWSrrZS-84">
          <mxGeometry x="770" y="30" width="50" height="50" as="geometry" />
        </mxCell>
        <mxCell id="IWlfBRPp-Ncp1fWSrrZS-121" style="edgeStyle=orthogonalEdgeStyle;rounded=0;orthogonalLoop=1;jettySize=auto;html=1;entryX=0;entryY=0.5;entryDx=0;entryDy=0;startArrow=none;startFill=0;endArrow=open;endFill=0;" edge="1" parent="IWlfBRPp-Ncp1fWSrrZS-84" source="IWlfBRPp-Ncp1fWSrrZS-117" target="IWlfBRPp-Ncp1fWSrrZS-120">
          <mxGeometry relative="1" as="geometry" />
        </mxCell>
        <mxCell id="IWlfBRPp-Ncp1fWSrrZS-117" value="Produce a order list" style="html=1;whiteSpace=wrap;rounded=1;dropTarget=0;gradientColor=none;fillColor=#FFFFFF;" vertex="1" parent="IWlfBRPp-Ncp1fWSrrZS-84">
          <mxGeometry x="350" y="140" width="120" height="80" as="geometry" />
        </mxCell>
        <mxCell id="IWlfBRPp-Ncp1fWSrrZS-118" value="" style="html=1;shape=mxgraph.bpmn.user_task;outlineConnect=0;" vertex="1" parent="IWlfBRPp-Ncp1fWSrrZS-117">
          <mxGeometry width="14" height="14" relative="1" as="geometry">
            <mxPoint x="7" y="7" as="offset" />
          </mxGeometry>
        </mxCell>
        <mxCell id="IWlfBRPp-Ncp1fWSrrZS-232" style="edgeStyle=orthogonalEdgeStyle;rounded=0;orthogonalLoop=1;jettySize=auto;html=1;startArrow=none;startFill=0;endArrow=open;endFill=0;" edge="1" parent="IWlfBRPp-Ncp1fWSrrZS-84" source="IWlfBRPp-Ncp1fWSrrZS-120" target="IWlfBRPp-Ncp1fWSrrZS-229">
          <mxGeometry relative="1" as="geometry" />
        </mxCell>
        <mxCell id="IWlfBRPp-Ncp1fWSrrZS-120" value="" style="shape=mxgraph.bpmn.shape;html=1;verticalLabelPosition=bottom;labelBackgroundColor=#ffffff;verticalAlign=top;align=center;perimeter=ellipsePerimeter;outlineConnect=0;outline=throwing;symbol=message;fillColor=#FFFFFF;" vertex="1" parent="IWlfBRPp-Ncp1fWSrrZS-84">
          <mxGeometry x="660" y="160" width="40" height="40" as="geometry" />
        </mxCell>
        <mxCell id="IWlfBRPp-Ncp1fWSrrZS-122" value="Order list for supplier" style="shape=note;whiteSpace=wrap;size=0;html=1;dropTarget=0;verticalAlign=top;labelPosition=center;verticalLabelPosition=bottom;align=center;" vertex="1" parent="IWlfBRPp-Ncp1fWSrrZS-84">
          <mxGeometry x="580" y="70" width="40" height="60" as="geometry" />
        </mxCell>
        <mxCell id="IWlfBRPp-Ncp1fWSrrZS-123" value="" style="html=1;shape=singleArrow;arrowWidth=0.4;arrowSize=0.4;outlineConnect=0;fillColor=#000000;" vertex="1" parent="IWlfBRPp-Ncp1fWSrrZS-122">
          <mxGeometry width="14" height="14" relative="1" as="geometry">
            <mxPoint x="2" y="2" as="offset" />
          </mxGeometry>
        </mxCell>
        <mxCell id="IWlfBRPp-Ncp1fWSrrZS-127" value="" style="startArrow=none;startFill=0;startSize=7;endArrow=open;endFill=0;endSize=10;dashed=1;html=1;entryX=0.025;entryY=0.75;entryDx=0;entryDy=0;entryPerimeter=0;exitX=0.567;exitY=0.013;exitDx=0;exitDy=0;exitPerimeter=0;" edge="1" parent="IWlfBRPp-Ncp1fWSrrZS-84" source="IWlfBRPp-Ncp1fWSrrZS-117" target="IWlfBRPp-Ncp1fWSrrZS-122">
          <mxGeometry width="100" relative="1" as="geometry">
            <mxPoint x="420" y="138" as="sourcePoint" />
            <mxPoint x="620" y="-72" as="targetPoint" />
            <Array as="points">
              <mxPoint x="420" y="115" />
            </Array>
          </mxGeometry>
        </mxCell>
        <mxCell id="IWlfBRPp-Ncp1fWSrrZS-128" value="" style="startArrow=none;startFill=0;startSize=7;endArrow=open;endFill=0;endSize=10;dashed=1;html=1;entryX=0.5;entryY=0;entryDx=0;entryDy=0;exitX=1.075;exitY=0.8;exitDx=0;exitDy=0;exitPerimeter=0;" edge="1" parent="IWlfBRPp-Ncp1fWSrrZS-84" source="IWlfBRPp-Ncp1fWSrrZS-122" target="IWlfBRPp-Ncp1fWSrrZS-120">
          <mxGeometry width="100" relative="1" as="geometry">
            <mxPoint x="610" y="110" as="sourcePoint" />
            <mxPoint x="591" y="125" as="targetPoint" />
            <Array as="points">
              <mxPoint x="680" y="120" />
            </Array>
          </mxGeometry>
        </mxCell>
        <mxCell id="IWlfBRPp-Ncp1fWSrrZS-173" value="Send parts" style="html=1;whiteSpace=wrap;rounded=1;dropTarget=0;gradientColor=none;fillColor=#FFFFFF;" vertex="1" parent="IWlfBRPp-Ncp1fWSrrZS-84">
          <mxGeometry x="860" y="15" width="120" height="80" as="geometry" />
        </mxCell>
        <mxCell id="IWlfBRPp-Ncp1fWSrrZS-174" value="" style="html=1;shape=mxgraph.bpmn.user_task;outlineConnect=0;" vertex="1" parent="IWlfBRPp-Ncp1fWSrrZS-173">
          <mxGeometry width="14" height="14" relative="1" as="geometry">
            <mxPoint x="7" y="7" as="offset" />
          </mxGeometry>
        </mxCell>
        <mxCell id="IWlfBRPp-Ncp1fWSrrZS-233" style="edgeStyle=orthogonalEdgeStyle;rounded=0;orthogonalLoop=1;jettySize=auto;html=1;entryX=0.5;entryY=1;entryDx=0;entryDy=0;startArrow=none;startFill=0;endArrow=open;endFill=0;" edge="1" parent="IWlfBRPp-Ncp1fWSrrZS-84" source="IWlfBRPp-Ncp1fWSrrZS-229" target="IWlfBRPp-Ncp1fWSrrZS-108">
          <mxGeometry relative="1" as="geometry" />
        </mxCell>
        <mxCell id="IWlfBRPp-Ncp1fWSrrZS-229" value="" style="shape=mxgraph.bpmn.shape;html=1;verticalLabelPosition=bottom;labelBackgroundColor=#ffffff;verticalAlign=top;align=center;perimeter=ellipsePerimeter;outlineConnect=0;outline=catching;symbol=message;fillColor=#FFFFFF;" vertex="1" parent="IWlfBRPp-Ncp1fWSrrZS-84">
          <mxGeometry x="740" y="160" width="40" height="40" as="geometry" />
        </mxCell>
        <mxCell id="IWlfBRPp-Ncp1fWSrrZS-234" value="Parts delivered" style="shape=note;whiteSpace=wrap;size=16;html=1;dropTarget=0;verticalAlign=top;labelPosition=center;verticalLabelPosition=bottom;align=center;" vertex="1" parent="IWlfBRPp-Ncp1fWSrrZS-84">
          <mxGeometry x="827" y="140" width="40" height="60" as="geometry" />
        </mxCell>
        <mxCell id="IWlfBRPp-Ncp1fWSrrZS-235" value="" style="html=1;shape=singleArrow;arrowWidth=0.4;arrowSize=0.4;outlineConnect=0;" vertex="1" parent="IWlfBRPp-Ncp1fWSrrZS-234">
          <mxGeometry width="14" height="14" relative="1" as="geometry">
            <mxPoint x="2" y="2" as="offset" />
          </mxGeometry>
        </mxCell>
        <mxCell id="IWlfBRPp-Ncp1fWSrrZS-89" value="" style="startArrow=oval;startFill=0;startSize=7;endArrow=block;endFill=0;endSize=10;dashed=1;html=1;exitX=0.5;exitY=1;exitDx=0;exitDy=0;entryX=0.5;entryY=0;entryDx=0;entryDy=0;" edge="1" parent="1" source="IWlfBRPp-Ncp1fWSrrZS-85" target="IWlfBRPp-Ncp1fWSrrZS-88">
          <mxGeometry width="100" relative="1" as="geometry">
            <mxPoint x="690" y="410" as="sourcePoint" />
            <mxPoint x="100" y="530" as="targetPoint" />
            <Array as="points">
              <mxPoint x="610" y="750" />
              <mxPoint x="60" y="750" />
            </Array>
          </mxGeometry>
        </mxCell>
        <mxCell id="IWlfBRPp-Ncp1fWSrrZS-119" value="Supplier" style="swimlane;html=1;horizontal=0;startSize=20;fillColor=#FFFFFF;gradientColor=none;" vertex="1" parent="1">
          <mxGeometry y="970" width="930" height="170" as="geometry" />
        </mxCell>
        <mxCell id="IWlfBRPp-Ncp1fWSrrZS-164" style="edgeStyle=orthogonalEdgeStyle;rounded=0;orthogonalLoop=1;jettySize=auto;html=1;entryX=0;entryY=0.5;entryDx=0;entryDy=0;startArrow=none;startFill=0;endArrow=open;endFill=0;" edge="1" parent="IWlfBRPp-Ncp1fWSrrZS-119" source="IWlfBRPp-Ncp1fWSrrZS-129" target="IWlfBRPp-Ncp1fWSrrZS-162">
          <mxGeometry relative="1" as="geometry" />
        </mxCell>
        <mxCell id="IWlfBRPp-Ncp1fWSrrZS-129" value="" style="shape=mxgraph.bpmn.shape;html=1;verticalLabelPosition=bottom;labelBackgroundColor=#ffffff;verticalAlign=top;align=center;perimeter=ellipsePerimeter;outlineConnect=0;outline=catching;symbol=message;fillColor=#FFFFFF;" vertex="1" parent="IWlfBRPp-Ncp1fWSrrZS-119">
          <mxGeometry x="50" y="40" width="40" height="40" as="geometry" />
        </mxCell>
        <mxCell id="IWlfBRPp-Ncp1fWSrrZS-167" style="edgeStyle=orthogonalEdgeStyle;rounded=0;orthogonalLoop=1;jettySize=auto;html=1;startArrow=none;startFill=0;endArrow=open;endFill=0;" edge="1" parent="IWlfBRPp-Ncp1fWSrrZS-119" source="IWlfBRPp-Ncp1fWSrrZS-162" target="IWlfBRPp-Ncp1fWSrrZS-166">
          <mxGeometry relative="1" as="geometry" />
        </mxCell>
        <mxCell id="IWlfBRPp-Ncp1fWSrrZS-162" value="Produce parts" style="html=1;whiteSpace=wrap;rounded=1;dropTarget=0;gradientColor=none;fillColor=#FFFFFF;" vertex="1" parent="IWlfBRPp-Ncp1fWSrrZS-119">
          <mxGeometry x="130" y="45" width="120" height="80" as="geometry" />
        </mxCell>
        <mxCell id="IWlfBRPp-Ncp1fWSrrZS-163" value="" style="html=1;shape=mxgraph.bpmn.user_task;outlineConnect=0;" vertex="1" parent="IWlfBRPp-Ncp1fWSrrZS-162">
          <mxGeometry width="14" height="14" relative="1" as="geometry">
            <mxPoint x="7" y="7" as="offset" />
          </mxGeometry>
        </mxCell>
        <mxCell id="IWlfBRPp-Ncp1fWSrrZS-166" value="" style="shape=mxgraph.bpmn.shape;html=1;verticalLabelPosition=bottom;labelBackgroundColor=#ffffff;verticalAlign=top;align=center;perimeter=ellipsePerimeter;outlineConnect=0;outline=throwing;symbol=message;fillColor=#FFFFFF;" vertex="1" parent="IWlfBRPp-Ncp1fWSrrZS-119">
          <mxGeometry x="300" y="65" width="40" height="40" as="geometry" />
        </mxCell>
        <mxCell id="IWlfBRPp-Ncp1fWSrrZS-125" value="" style="startArrow=oval;startFill=0;startSize=7;endArrow=block;endFill=0;endSize=10;dashed=1;html=1;exitX=0.5;exitY=1;exitDx=0;exitDy=0;entryX=0.5;entryY=0;entryDx=0;entryDy=0;" edge="1" parent="1" source="IWlfBRPp-Ncp1fWSrrZS-120" target="IWlfBRPp-Ncp1fWSrrZS-129">
          <mxGeometry width="100" relative="1" as="geometry">
            <mxPoint x="360" y="970" as="sourcePoint" />
            <mxPoint x="680" y="1050" as="targetPoint" />
            <Array as="points">
              <mxPoint x="680" y="990" />
              <mxPoint x="70" y="990" />
            </Array>
          </mxGeometry>
        </mxCell>
        <mxCell id="IWlfBRPp-Ncp1fWSrrZS-141" value="" style="startArrow=oval;startFill=0;startSize=7;endArrow=block;endFill=0;endSize=10;dashed=1;html=1;exitX=0.5;exitY=0;exitDx=0;exitDy=0;entryX=0.5;entryY=1;entryDx=0;entryDy=0;" edge="1" parent="1" source="IWlfBRPp-Ncp1fWSrrZS-135" target="IWlfBRPp-Ncp1fWSrrZS-142">
          <mxGeometry width="100" relative="1" as="geometry">
            <mxPoint x="800" y="450" as="sourcePoint" />
            <mxPoint x="720" y="70" as="targetPoint" />
            <Array as="points">
              <mxPoint x="1180" y="520" />
              <mxPoint x="1180" y="140" />
              <mxPoint x="690" y="140" />
            </Array>
          </mxGeometry>
        </mxCell>
        <mxCell id="IWlfBRPp-Ncp1fWSrrZS-178" value="" style="startArrow=oval;startFill=0;startSize=7;endArrow=block;endFill=0;endSize=10;dashed=1;html=1;exitX=1;exitY=0.5;exitDx=0;exitDy=0;entryX=0.558;entryY=1;entryDx=0;entryDy=0;entryPerimeter=0;" edge="1" parent="1" source="IWlfBRPp-Ncp1fWSrrZS-173" target="IWlfBRPp-Ncp1fWSrrZS-157">
          <mxGeometry width="100" relative="1" as="geometry">
            <mxPoint x="1000" y="780" as="sourcePoint" />
            <mxPoint x="1100" y="780" as="targetPoint" />
            <Array as="points">
              <mxPoint x="1217" y="775" />
            </Array>
          </mxGeometry>
        </mxCell>
        <mxCell id="IWlfBRPp-Ncp1fWSrrZS-201" value="" style="startArrow=oval;startFill=0;startSize=7;endArrow=block;endFill=0;endSize=10;dashed=1;html=1;exitX=0.5;exitY=0;exitDx=0;exitDy=0;entryX=0.5;entryY=1;entryDx=0;entryDy=0;" edge="1" parent="1" source="IWlfBRPp-Ncp1fWSrrZS-199" target="IWlfBRPp-Ncp1fWSrrZS-198">
          <mxGeometry width="100" relative="1" as="geometry">
            <mxPoint x="1190" y="660" as="sourcePoint" />
            <mxPoint x="1290" y="660" as="targetPoint" />
            <Array as="points">
              <mxPoint x="1610" y="410" />
              <mxPoint x="810" y="410" />
            </Array>
          </mxGeometry>
        </mxCell>
        <mxCell id="IWlfBRPp-Ncp1fWSrrZS-205" value="" style="startArrow=none;startFill=0;startSize=7;endArrow=open;endFill=0;endSize=10;dashed=1;html=1;exitX=0;exitY=0;exitDx=40;exitDy=38;exitPerimeter=0;" edge="1" parent="1" source="IWlfBRPp-Ncp1fWSrrZS-202">
          <mxGeometry width="100" relative="1" as="geometry">
            <mxPoint x="62" y="250" as="sourcePoint" />
            <mxPoint x="950" y="410" as="targetPoint" />
            <Array as="points">
              <mxPoint x="950" y="348" />
            </Array>
          </mxGeometry>
        </mxCell>
        <mxCell id="IWlfBRPp-Ncp1fWSrrZS-231" value="" style="startArrow=oval;startFill=0;startSize=7;endArrow=block;endFill=0;endSize=10;dashed=1;html=1;exitX=1;exitY=0.5;exitDx=0;exitDy=0;entryX=0.5;entryY=1;entryDx=0;entryDy=0;" edge="1" parent="1" source="IWlfBRPp-Ncp1fWSrrZS-166" target="IWlfBRPp-Ncp1fWSrrZS-229">
          <mxGeometry width="100" relative="1" as="geometry">
            <mxPoint x="690" y="930" as="sourcePoint" />
            <mxPoint x="80" y="1020" as="targetPoint" />
            <Array as="points">
              <mxPoint x="760" y="1055" />
            </Array>
          </mxGeometry>
        </mxCell>
        <mxCell id="IWlfBRPp-Ncp1fWSrrZS-236" value="" style="startArrow=none;startFill=0;startSize=7;endArrow=open;endFill=0;endSize=10;dashed=1;html=1;exitX=0;exitY=0.5;exitDx=0;exitDy=0;exitPerimeter=0;" edge="1" parent="1" source="IWlfBRPp-Ncp1fWSrrZS-234">
          <mxGeometry width="100" relative="1" as="geometry">
            <mxPoint x="633" y="848" as="sourcePoint" />
            <mxPoint x="760" y="950" as="targetPoint" />
            <Array as="points">
              <mxPoint x="800" y="890" />
              <mxPoint x="800" y="950" />
            </Array>
          </mxGeometry>
        </mxCell>
      </root>
    </mxGraphModel>
  </diagram>
</mxfile>
